name Walk4.mot
datacolumns 19
datarows 10
range 2.68000000 2.68900000
endheader

                time	   L_ground_force_vx	   L_ground_force_vy	   L_ground_force_vz	   L_ground_force_px	   L_ground_force_py	   L_ground_force_pz	   R_ground_force_vx	   R_ground_force_vy	   R_ground_force_vz	   R_ground_force_px	   R_ground_force_py	   R_ground_force_pz	   L_ground_torque_x	   L_ground_torque_y	   L_ground_torque_z	   R_ground_torque_x	   R_ground_torque_y	   R_ground_torque_z	
          2.68000000	          0.00000000	          0.00000000	          0.00000000	          0.00000000	          0.00000000	          0.00000000	         -0.92083317	        880.68022821	        -60.29216185	          0.31056297	          0.00000000	          0.13070262	          0.00000000	          0.00000000	          0.00000000	          0.00000000	          2.86759047	          0.00000000	
          2.68100000	          0.00000000	          0.00000000	          0.00000000	          0.00000000	          0.00000000	          0.00000000	         -0.79506788	        880.98783240	        -60.24083846	          0.31093077	          0.00000000	          0.13080734	          0.00000000	          0.00000000	          0.00000000	          0.00000000	          2.86047859	          0.00000000	
          2.68200000	          0.00000000	          0.00000000	          0.00000000	          0.00000000	          0.00000000	          0.00000000	         -0.65156839	        881.31806565	        -60.17168346	          0.31126508	          0.00000000	          0.13093349	          0.00000000	          0.00000000	          0.00000000	          0.00000000	          2.85310005	          0.00000000	
          2.68300000	          0.00000000	          0.00000000	          0.00000000	          0.00000000	          0.00000000	          0.00000000	         -0.49254433	        881.68017781	        -60.09012901	          0.31160123	          0.00000000	          0.13106660	          0.00000000	          0.00000000	          0.00000000	          0.00000000	          2.84294184	          0.00000000	
          2.68400000	          0.00000000	          0.00000000	          0.00000000	          0.00000000	          0.00000000	          0.00000000	         -0.32070050	        882.10503404	        -60.00129646	          0.31198570	          0.00000000	          0.13119604	          0.00000000	          0.00000000	          0.00000000	          0.00000000	          2.82710729	          0.00000000	
          2.68500000	          0.00000000	          0.00000000	          0.00000000	          0.00000000	          0.00000000	          0.00000000	         -0.13322288	        882.59508783	        -59.91341591	          0.31244990	          0.00000000	          0.13131635	          0.00000000	          0.00000000	          0.00000000	          0.00000000	          2.80514877	          0.00000000	
          2.68600000	          0.00000000	          0.00000000	          0.00000000	          0.00000000	          0.00000000	          0.00000000	          0.07417497	        883.10239460	        -59.83402845	          0.31297952	          0.00000000	          0.13142375	          0.00000000	          0.00000000	          0.00000000	          0.00000000	          2.77878516	          0.00000000	
          2.68700000	          0.00000000	          0.00000000	          0.00000000	          0.00000000	          0.00000000	          0.00000000	          0.29437675	        883.57277307	        -59.76151096	          0.31351196	          0.00000000	          0.13151373	          0.00000000	          0.00000000	          0.00000000	          0.00000000	          2.74960093	          0.00000000	
          2.68800000	          0.00000000	          0.00000000	          0.00000000	          0.00000000	          0.00000000	          0.00000000	          0.50810620	        884.00316025	        -59.68413779	          0.31398045	          0.00000000	          0.13158486	          0.00000000	          0.00000000	          0.00000000	          0.00000000	          2.71768054	          0.00000000	
          2.68900000	          0.00000000	          0.00000000	          0.00000000	          0.00000000	          0.00000000	          0.00000000	          0.70163706	        884.43386953	        -59.59024767	          0.31436458	          0.00000000	          0.13164200	          0.00000000	          0.00000000	          0.00000000	          0.00000000	          2.68305909	          0.00000000	
